{"title":"The Mist*2007*[BluRay][1080p][ENG, POL]","uid":5863384,"size":13600391319,"categoryP":"video","categoryS":"hd___movies","magnet":"?xt=urn:btih:9533d2997f9222195c196f7cdac0566b38bf964d&amp;dn=The+Mist%2A2007%2A%5BBluRay%5D%5B1080p%5D%5BENG%2C+POL%5D&amp;tr=udp%3A%2F%2Ftracker.openbittorrent.com%3A80&amp;tr=udp%3A%2F%2Fopen.demonii.com%3A1337&amp;tr=udp%3A%2F%2Ftracker.coppersurfer.tk%3A6969&amp;tr=udp%3A%2F%2Fexodus.desync.com%3A6969","seeders":0,"leechers":3,"uploader":"albedo040","files":1,"time":1286053381,"description":"The Mist*2007*[BluRay][1080p][ENG, POL]\n\nGeneral information:\nCountry: USA\nRelease: 21 November 2007\nGenre: Drama, Horror, Sci-Fi, Thriller\nDirector: Frank Darabont\nScreenplay: Frank Darabont, Stephen King (novel)\nOriginal Music: Mark Isham\nCinematography by: Ronn Schmidt\nDuration: 2h 5mn\nLanguage: English, Polish\nSubtitles: English, Polish\nRating: 6.0/10 - 32676 votes \n\nCast:\nThomas Jane  ...  David Drayton  \nMarcia Gay Harden  ...  Mrs. Carmody  \nLaurie Holden  ...  Amanda Dunfrey  \nAndre Braugher  ...  Brent Norton  \nToby Jones  ...  Ollie Weeks  \nWilliam Sadler  ...  Jim  \nJeffrey DeMunn  ...  Dan Miller  \nFrances Sternhagen  ...  Irene Reppler  \nNathan Gamble  ...  Billy Drayton  \nAlexa Davalos  ...  Sally  \nChris Owen  ...  Norm  \nSam Witwer  ...  Private Jessup  \nRobert C. Treveiler  ...  Bud Brown (as Robert Treveiler)  \nDavid Jensen  ...  Myron  \nMelissa Suzanne McBride  ...  Woman With Kids at Home (as Melissa McBride)  \n\nPlot:\nA freak storm unleashes a species of blood-thirsty creatures on a small town, where a small band of citizens hole-up in a supermarket and fight for their lives. \n\nSpecifications:\nGeneral\nFormat                           : Matroska\nOverall bit rate                 : 14.4 Mbps\n\nVideo\nFormat                           : AVC\nFormat/Info                      : Advanced Video Codec\nFormat profile                   : &lt;a class=&quot;__cf_email__&quot; href=&quot;/cdn-cgi/l/email-protection&quot; data-cfemail=&quot;b2fadbd5daf2fe879c82&quot;&gt;[email&amp;#160;protected]&lt;/a&gt;&lt;script cf-hash='f9e31' type=&quot;text/javascript&quot;&gt;\n/* &lt;![CDATA[ */!function(){try{var t=&quot;currentScript&quot;in document?document.currentScript:function(){for(var t=document.getElementsByTagName(&quot;script&quot;),e=t.length;e--;)if(t[e].getAttribute(&quot;cf-hash&quot;))return t[e]}();if(t&amp;&amp;t.previousSibling){var e,r,n,i,c=t.previousSibling,a=c.getAttribute(&quot;data-cfemail&quot;);if(a){for(e=&quot;&quot;,r=parseInt(a.substr(0,2),16),n=2;a.length-n;n+=2)i=parseInt(a.substr(n,2),16)^r,e+=String.fromCharCode(i);e=document.createTextNode(e),c.parentNode.replaceChild(e,c)}}}catch(u){}}();/* ]]&gt; */&lt;/script&gt;\nFormat settings, CABAC           : Yes\nFormat settings, ReFrames        : 6 frames\nMuxing mode                      : Container profile=&lt;a class=&quot;__cf_email__&quot; href=&quot;/cdn-cgi/l/email-protection&quot; data-cfemail=&quot;40152e2b2e2f372e00756e70&quot;&gt;[email&amp;#160;protected]&lt;/a&gt;&lt;script cf-hash='f9e31' type=&quot;text/javascript&quot;&gt;\n/* &lt;![CDATA[ */!function(){try{var t=&quot;currentScript&quot;in document?document.currentScript:function(){for(var t=document.getElementsByTagName(&quot;script&quot;),e=t.length;e--;)if(t[e].getAttribute(&quot;cf-hash&quot;))return t[e]}();if(t&amp;&amp;t.previousSibling){var e,r,n,i,c=t.previousSibling,a=c.getAttribute(&quot;data-cfemail&quot;);if(a){for(e=&quot;&quot;,r=parseInt(a.substr(0,2),16),n=2;a.length-n;n+=2)i=parseInt(a.substr(n,2),16)^r,e+=String.fromCharCode(i);e=document.createTextNode(e),c.parentNode.replaceChild(e,c)}}}catch(u){}}();/* ]]&gt; */&lt;/script&gt;\nCodec ID                         : V_MPEG4/ISO/AVC\nBit rate                         : 12.4 Mbps\nWidth                            : 1 920 pixels\nHeight                           : 1 058 pixels\nDisplay aspect ratio             : 16:9\nFrame rate                       : 23.976 fps\n\nAudio 1\nFormat                           : DTS\nFormat/Info                      : Digital Theater Systems\nCodec ID                         : A_DTS\nBit rate mode                    : Constant\nBit rate                         : 1 510 Kbps\nChannel(s)                       : 6 channels\nChannel positions                : Front: L C R, Side: L R, LFE\nSampling rate                    : 48.0 KHz\nBit depth                        : 24 bits\nStream size                      : 1.33 GiB (10%)\nLanguage                         : English\n\nAudio 2\nFormat                           : AC-3\nFormat/Info                      : Audio Coding 3\nMode extension                   : CM (complete main)\nCodec ID                         : A_AC3\nBit rate mode                    : Constant\nBit rate                         : 448 Kbps\nChannel(s)                       : 6 channels\nChannel positions                : Front: L C R, Side: L R, LFE\nSampling rate                    : 48.0 KHz\nStream size                      : 404 MiB (3%)\nLanguage                         : Polish\n\nText 1\nFormat                           : UTF-8\nCodec ID                         : S_TEXT/UTF8\nCodec ID/Info                    : UTF-8 Plain Text\nTitle                            : English_SUB\n\nText 2\nFormat                           : UTF-8\nCodec ID                         : S_TEXT/UTF8\nCodec ID/Info                    : UTF-8 Plain Text\nTitle                            : Polish_SUB\n","torrent":{"xt":"urn:btih:9533d2997f9222195c196f7cdac0566b38bf964d","amp;dn":"The+Mist%2A2007%2A%5BBluRay%5D%5B1080p%5D%5BENG%2C+POL%5D","amp;tr":["udp%3A%2F%2Ftracker.openbittorrent.com%3A80","udp%3A%2F%2Fopen.demonii.com%3A1337","udp%3A%2F%2Ftracker.coppersurfer.tk%3A6969","udp%3A%2F%2Fexodus.desync.com%3A6969"],"infoHash":"9533d2997f9222195c196f7cdac0566b38bf964d","infoHashBuffer":{"type":"Buffer","data":[149,51,210,153,127,146,34,25,92,25,111,124,218,192,86,107,56,191,150,77]},"announce":[],"urlList":[]}}